<svg id="Filled_outline" height="512" viewBox="0 0 64 64" width="512" xmlns="http://www.w3.org/2000/svg" data-name="Filled outline"><circle cx="43" cy="5" fill="#ffde7e" r="2"/><path d="m47 15-.62127-2.48507a2 2 0 0 0 -1.94028-1.51493h-2.8769a2 2 0 0 0 -1.94028 1.51493l-.62127 2.48507v3h8z" fill="#ffde7e"/><path d="m57 47h4a0 0 0 0 1 0 0v4a0 0 0 0 1 0 0h-6a0 0 0 0 1 0 0v-2a2 2 0 0 1 2-2z" fill="#efefef" transform="matrix(-1 0 0 -1 116 98)"/><path d="m25 47h6a0 0 0 0 1 0 0v4a0 0 0 0 1 0 0h-4a2 2 0 0 1 -2-2v-2a0 0 0 0 1 0 0z" fill="#efefef"/><path d="m43 18-9-1-6.94257 3.857a4 4 0 0 0 -2.05743 3.49661v22.64639h6v7a2 2 0 0 0 2 2h10z" fill="#faa"/><path d="m43 56h10a2 2 0 0 0 2-2v-7h6v-22.64639a4 4 0 0 0 -2.05743-3.49661l-6.94257-3.857-9 1z" fill="#f2a2a2"/><path d="m52 17-9 18-9-18 9 1z" fill="#e2e2e2"/><path d="m47.63576 14.90949-4.63576 3.09051 2.36844 3.15792a1 1 0 0 0 1.44019.16822l5.19137-4.32614-1.84062-1.84062a2 2 0 0 0 -2.52362-.24989z" fill="#efefef"/><path d="m38.36424 14.90949 4.63576 3.09051-2.36844 3.15792a1 1 0 0 1 -1.44019.16822l-5.19137-4.32614 1.84062-1.84062a2 2 0 0 1 2.52362-.24989z" fill="#efefef"/><path d="m41 56h4v6h-4z" fill="#d5d5d5"/><path d="m3 36h16a2 2 0 0 1 2 2v4a2 2 0 0 1 -2 2h-16a0 0 0 0 1 0 0v-8a0 0 0 0 1 0 0z" fill="#e2e2e2" transform="matrix(-1 0 0 -1 24 80)"/><rect fill="#efefef" height="6" rx="2" transform="matrix(-1 0 0 -1 33 116)" width="27" x="3" y="55"/><path d="m25 33a4 4 0 0 1 4 4v9a2 2 0 0 1 -2 2h-4a2 2 0 0 1 -2-2v-9a4 4 0 0 1 4-4z" fill="#efefef" transform="matrix(-1 0 0 -1 50 81)"/><path d="m6 44h9v11h-9z" fill="#d5d5d5" transform="matrix(-1 0 0 -1 21 99)"/><path d="m59.42822 19.9834-6.82043-3.78967-1.74158-1.74158a3.00242 3.00242 0 0 0 -3.1441-.6875l-.373-1.49317a2.99684 2.99684 0 0 0 -2.91063-2.27148h-.43848v-2.18427a3.00011 3.00011 0 1 0 -2-.00006v2.18433h-.43848a2.99664 2.99664 0 0 0 -2.91064 2.27246l-.37293 1.49219a3.00215 3.00215 0 0 0 -3.14416.6875l-1.74164 1.74164-6.81988 3.78961a5.00167 5.00167 0 0 0 -2.57227 4.37012v4.64648h2v-4.64648a3 3 0 0 1 1.54346-2.62207l6.02911-3.35 8.42743 16.85488v19.76367h-9v2h7v5h2v-5h2v5h2v-5h7a3.00328 3.00328 0 0 0 3-3v-2h3a3.00328 3.00328 0 0 0 3-3v-24.64648a5.0022 5.0022 0 0 0 -2.57178-4.37012zm-16.42822-15.9834a1 1 0 1 1 -1 1 1.001 1.001 0 0 1 1-1zm0 28.76367-5.96741-11.93487 1.51917 1.26593a2.01107 2.01107 0 0 0 1.28271.46289 1.82549 1.82549 0 0 0 .23047-.01367 2.0045 2.0045 0 0 0 1.36621-.78614l1.56873-2.09161 1.56848 2.09161a2.00659 2.00659 0 0 0 1.3667.78614 1.82549 1.82549 0 0 0 .23047.01367 2.01239 2.01239 0 0 0 1.2832-.46289l1.51843-1.26538zm6.45215-16.89746 1.0664 1.06641-4.35009 3.626-1.73438-2.3125 3.75586-2.50488a1.00415 1.00415 0 0 1 1.26221.12497zm-7.89063-3.86621h2.877a.99887.99887 0 0 1 .97021.75684l.52173 2.08764-2.93036 1.95343-2.9304-1.95361.52161-2.08649a.99867.99867 0 0 1 .97021-.75781zm-5.01367 3.86621a1.0044 1.0044 0 0 1 1.26221-.125l3.75586 2.50488-1.73438 2.31153-4.35009-3.625zm23.45215 33.13379a1.001 1.001 0 0 1 -1 1h-3v-2h4zm-4-3v-19h-2v27a1.001 1.001 0 0 1 -1 1h-9v-19.76367l8.42743-16.85486 6.0296 3.35a3.00057 3.00057 0 0 1 1.54297 2.62205v21.64648z"/><circle cx="39" cy="40" r="1"/><circle cx="39" cy="45" r="1"/><circle cx="39" cy="50" r="1"/><path d="m5 62h23a3.00328 3.00328 0 0 0 3-3v-2a3.00328 3.00328 0 0 0 -3-3h-12v-9h4.10107a5.01458 5.01458 0 0 0 3.89893 3.89893v3.10107h2v-3.10107a5.00837 5.00837 0 0 0 4-4.89893v-9a3.00328 3.00328 0 0 0 -3-3h-4a3.00328 3.00328 0 0 0 -3 3h-6v-4h-2v4h-4v-4h-2v4h-1a3.00328 3.00328 0 0 0 -3 3v4a3.00328 3.00328 0 0 0 3 3v9a3.00328 3.00328 0 0 0 -3 3v2a3.00328 3.00328 0 0 0 3 3zm18-28h4a1.001 1.001 0 0 1 1 1v9a3 3 0 0 1 -6 0v-9a1.001 1.001 0 0 1 1-1zm-19 8v-4a1.001 1.001 0 0 1 1-1h15v6h-15a1.001 1.001 0 0 1 -1-1zm3 3h7v9h-7zm-3 12a1.001 1.001 0 0 1 1-1h23a1.001 1.001 0 0 1 1 1v2a1.001 1.001 0 0 1 -1 1h-23a1.001 1.001 0 0 1 -1-1z"/></svg>