<svg id="Capa_1" enable-background="new 0 0 512 512" height="512" viewBox="0 0 512 512" width="512" xmlns="http://www.w3.org/2000/svg"><g><path d="m456 180c-8.284 0-15-6.716-15-15 0-24.813-20.187-45-45-45h-3.637c-8.284 0-15-6.716-15-15s6.716-15 15-15h3.637c41.355 0 75 33.645 75 75 0 8.284-6.716 15-15 15z" fill="#ff4b9b"/><path d="m119.638 120h-104.638c-8.284 0-15-6.716-15-15s6.716-15 15-15h104.638c8.284 0 15 6.716 15 15s-6.716 15-15 15z" fill="#ff78c8"/><path d="m141.81 360h-25.81c-41.355 0-75-33.645-75-75 0-8.284 6.716-15 15-15s15 6.716 15 15c0 24.813 20.187 45 45 45h25.81c8.284 0 15 6.716 15 15s-6.716 15-15 15z" fill="#ff78c8"/><path d="m497 360h-126.81c-8.284 0-15-6.716-15-15s6.716-15 15-15h126.81c8.284 0 15 6.716 15 15s-6.716 15-15 15z" fill="#ff4b9b"/><path d="m241 497v-82c0-8.284 6.716-15 15-15s15 6.716 15 15v82z" fill="#0082cf"/><path d="m271 497v-82c0-8.284-6.716-15-15-15v97z" fill="#115aa7"/><path d="m296 512h-80c-8.284 0-15-6.716-15-15s6.716-15 15-15h80c8.284 0 15 6.716 15 15s-6.716 15-15 15z" fill="#49aae6"/><path d="m296 482h-40v30h40c8.284 0 15-6.716 15-15s-6.716-15-15-15z" fill="#0082cf"/><path d="m376 430h-240c-8.284 0-15-6.716-15-15v-22.641c0-40.339 11.301-79.742 32.681-113.95l13.846-22.152-2.641-3.17c-28.09-33.728-47.089-74.38-54.942-117.563l-5.185-28.503c-3.394-18.658 8.975-36.864 27.57-40.584l68.671-13.734v-37.703c0-8.284 6.716-15 15-15h80c8.284 0 15 6.716 15 15v37.703l68.671 13.733h.001c18.594 3.72 30.963 21.924 27.57 40.581l-5.181 28.495c-7.856 43.215-26.872 83.893-54.992 117.636l-2.593 3.111 13.843 22.149c21.38 34.209 32.681 73.613 32.681 113.951v22.641c0 8.284-6.716 15-15 15z" fill="#ffc8aa"/><path d="m379.672 66.437c-.001 0-.001 0 0 0l-68.672-13.734v-37.703c0-8.284-6.716-15-15-15h-40v430h120c8.284 0 15-6.716 15-15v-22.641c0-40.339-11.301-79.742-32.681-113.95l-13.843-22.149 2.593-3.111c28.12-33.743 47.136-74.421 54.992-117.636l5.181-28.495c3.393-18.658-8.976-36.862-27.57-40.581z" fill="#ffaa8f"/><path d="m456 150c-8.284 0-15 6.716-15 15 0 24.813-20.187 45-45 45h-280c-41.355 0-75 33.645-75 75 0 8.284 6.716 15 15 15s15-6.716 15-15c0-24.813 20.187-45 45-45h280c41.355 0 75-33.645 75-75 0-8.284-6.716-15-15-15z" fill="#ff78c8"/><path d="m456 150c-8.284 0-15 6.716-15 15 0 24.813-20.187 45-45 45h-140v30h140c41.355 0 75-33.645 75-75 0-8.284-6.716-15-15-15z" fill="#ff4b9b"/></g></svg>